<svg xmlns="http://www.w3.org/2000/svg" xmlns:xlink="http://www.w3.org/1999/xlink" version="1.1" x="0px" y="0px" viewBox="0 0 100 125" style="enable-background:new 0 0 100 100;" xml:space="preserve"><path d="M31.9,31.6c0-0.9,0.7-1.6,1.6-1.6h9.1v-5.3c0-0.9,0.7-1.6,1.6-1.6s1.6,0.7,1.6,1.6V30h9.1c0.9,0,1.6,0.7,1.6,1.6  c0,0.9-0.7,1.6-1.6,1.6h-9.1v3.7h8c0.9,0,1.6,0.7,1.6,1.6v4.7h-3.1v-3.1H36.1v3.1H33v-4.7c0-0.9,0.7-1.6,1.6-1.6h8v-3.7h-9.1  C32.6,33.1,31.9,32.4,31.9,31.6z M78.4,73.7H59.4c-0.9,0-1.6,0.7-1.6,1.6c0,0.9,0.7,1.6,1.6,1.6h19.1c0.9,0,1.6-0.7,1.6-1.6  C80,74.4,79.3,73.7,78.4,73.7z M59.9,71.6H63v-10c0-0.9-0.7-1.6-1.6-1.6H23.1V48.3h47.2c2.5,0,4.5,2,4.5,4.5v18.8h3.1V52.8  c0-4.2-3.4-7.6-7.6-7.6H21.6c-0.9,0-1.6,0.7-1.6,1.6v14.9c0,0.9,0.7,1.6,1.6,1.6h38.3V71.6z"/><text x="0" y="115" fill="#000000" font-size="5px" font-weight="bold" font-family="'Helvetica Neue', Helvetica, Arial-Unicode, Arial, Sans-serif">Created by Mello</text><text x="0" y="120" fill="#000000" font-size="5px" font-weight="bold" font-family="'Helvetica Neue', Helvetica, Arial-Unicode, Arial, Sans-serif">from the Noun Project</text></svg>
